<?xml version="1.0" encoding="UTF-8"?>
<svg id="Capa_1" data-name="Capa 1" xmlns="http://www.w3.org/2000/svg" viewBox="0 0 488.72 481.13">
  <defs>
    <style>
      .cls-1 {
        fill: #fff;
        stroke-width: 0px;
      }
    </style>
  </defs>
  <path class="cls-1" d="M243.95.07c3.37,0,6.75.15,10.11-.04,4.44-.26,8.74,1.36,13.18.79,1.79,1.04,3.76.75,5.68.73,1.94-.02,3.74.75,5.67.93,1.48.14,3.25.08,4.52.7,1.54.76,3.33,0,4.47.9,1.4,1.11,3.32-.45,4.39,1.22,3.62-.1,6.89,1.41,10.31,2.25,3.06.75,6.21,1.26,9.14,2.36,2.18.81,4.48,1.14,6.62,2.1,2.1.94,4.35,1.55,6.54,2.29,2.41.81,4.9,1.43,7.23,2.45,8.57,3.74,17.28,7.19,25.47,11.77,2.85,1.59,5.73,3.1,8.46,4.88,1.76,1.14,3.66,2.07,5.48,3.08,4.55,2.53,8.71,5.58,12.89,8.6,4.36,3.14,8.66,6.36,12.87,9.71,4.51,3.59,8.87,7.29,12.81,11.48,1.1,1.17,3.25,1.29,3.43,3.37,1.77.28,2.67,1.77,3.62,2.95,3.17,3.96,7.01,7.29,10.33,11.08,4.26,4.89,8.23,10.03,12.21,15.15,2.76,3.56,5.43,7.2,7.93,10.95,2.53,3.79,4.85,7.71,7.17,11.63,3.73,6.28,7.32,12.64,10.35,19.31,2.62,5.78,5.03,11.64,7.42,17.53,2.4,5.91,4.08,12.04,6.3,17.99.81,2.17,1.36,4.5,1.73,6.75.44,2.69,1.5,5.18,1.94,7.89.39,2.44.72,5.03,1.79,7.46.66,1.5.31,3.49.81,5.27.69,2.48.75,5.1,1.48,7.63.52,1.78-.21,3.87.84,5.66-.57,3.82,1.07,7.5.74,11.3-.28,3.19,1.1,6.2.82,9.43-.27,3.09-.06,6.23-.06,9.34s-.08,6.49.02,9.74c.13,4.05-1.33,7.98-.77,12.05-1.15,2.17-.24,4.64-.84,6.78-1.06,3.78-.56,7.81-2.16,11.46.34,3.54-1.35,6.76-1.56,10.24-.09,1.46-.91,2.86-1.3,4.31-1.08,4.05-2.03,8.14-3.17,12.18-.59,2.11-1.53,4.11-2.21,6.2-1.3,3.95-2.99,7.76-4.34,11.68-1.17,3.4-3.16,6.42-4.17,9.9-.42,1.44-1.5,2.88-2.41,4.26-.85,1.28-.98,3.07-2.21,4.32-.54.55-.74,1.43-1.11,2.15-2.66,5.18-5.62,10.18-8.64,15.16-2.26,3.72-4.59,7.36-7.1,10.9-2.55,3.58-5.02,7.21-7.75,10.67-3.21,4.07-6.91,7.72-9.87,11.99-.42.61-1.04,1.07-1.57,1.6-4.33,4.33-8.61,8.7-12.99,12.96-3.08,3-6.23,5.94-9.5,8.73-3.75,3.2-7.58,6.3-11.52,9.26-2.81,2.11-5.85,3.93-8.8,5.86-3.73,2.44-7.37,5.04-11.24,7.25-4.72,2.69-9.64,5.04-14.47,7.54-2.88,1.49-5.66,3.22-8.65,4.44-4.49,1.83-8.92,3.77-13.45,5.51-5.29,2.02-10.57,4.02-15.95,5.8-6.42,2.13-12.91,3.95-19.56,5.23-1.55,1.35-3.64.54-5.43,1.39-1.64.78-3.84.31-5.6.94-1.8.65-3.68.22-5.3.77-1.81.61-3.55.66-5.34.62-1.46-.03-2.62,1.07-4.2.84-1.23-.18-2.72-.64-3.83.65-.16.19-.72.07-1.09.02-4.19-.52-8.27.79-12.43.76-4.12-.03-8.24,0-12.36,0-2.75,0-5.5.08-8.24-.02-5.02-.19-10.06-.22-15.03-.85-2.15-.27-4.31-.39-6.44-.69-2.02-.28-4.07-.47-6.04-.83-1.53-.28-3.03-.64-4.58-.59-1.47.05-2.82-.6-4.15-.91-2.71-.65-5.62-.59-8.13-2-3.74.08-6.98-2.04-10.64-2.37-.66-.06-1.29-.48-1.94-.72-3.16-1.15-6.5-1.7-9.63-2.97-2.46-1-5.03-1.72-7.5-2.68-3.01-1.17-5.96-2.48-8.96-3.68-2.89-1.16-5.9-2.19-8.61-3.58-4.94-2.54-10.23-4.47-14.77-7.79-1.02-.74-2.21-1.27-3.39-1.75-3.59-1.45-6.73-3.71-9.98-5.72-4-2.47-7.88-5.14-11.76-7.8-2.54-1.74-5-3.6-7.5-5.41-2.69-1.95-5.25-4.05-8.02-5.91-1.98-1.33-3.61-3.22-5.54-4.73-5.47-4.27-10.17-9.38-15.08-14.26-1.77-1.76-3.52-3.54-5.3-5.29-4.76-4.71-8.77-10.05-13.07-15.15-3.88-4.6-7.21-9.58-10.98-14.24-2.05-2.54-3.6-5.48-5.34-8.26-2.05-3.27-4.08-6.55-6.09-9.84-.66-1.09-1.26-2.22-1.86-3.35-1.29-2.46-2.69-4.88-3.81-7.41-1.78-4-3.73-7.93-5.39-12-1.3-3.19-2.83-6.32-4.02-9.57-1.67-4.56-3.53-9.08-4.67-13.78-.83-3.4-1.73-6.81-2.44-10.25-.42-2.06-.93-4.1-1.5-6.12-.57-2.03-.56-4.15-1.38-6.17-.51-1.25-.28-2.75-.75-4.18-.65-2.01-.58-4.26-.86-6.4-.2-1.53-.53-3.04-.73-4.56-.2-1.53.45-3.18-.73-4.58-.18-.22-.05-.73-.02-1.1.36-5.92-1.1-11.73-.81-17.67.28-5.85.08-11.73.05-17.6-.01-3.17,1.27-6.22.76-9.43,1.25-1.76.55-3.78.77-5.68.14-1.16.48-2.29.73-3.44.22-1.04.15-2.07.45-3.16.53-1.9.69-3.96,1.03-5.96.66-3.94,1.7-7.79,2.56-11.68.78-3.53,2-6.94,2.75-10.48.47-2.24,1.47-4.38,2.19-6.57.93-2.86,1.87-5.72,2.72-8.61.98-3.34,2.68-6.39,3.73-9.7,1.47-4.64,3.78-8.93,5.82-13.32,1.12-2.41,2.23-4.82,3.45-7.18,1.81-3.51,3.89-6.9,5.71-10.38,3.38-6.47,7.51-12.4,11.56-18.42,1.72-2.56,3.72-4.94,5.47-7.48,2.31-3.35,5.24-6.22,7.44-9.65.13-.21.36-.35.52-.53,7.15-8.27,14.88-16,22.87-23.43,4.27-3.97,8.99-7.53,13.68-11.07,4.84-3.66,9.73-7.27,14.74-10.67,4.24-2.87,8.69-5.47,13.09-8.1,3.6-2.15,7.5-3.73,10.97-6.17,2.5-1.76,5.66-2.53,8.5-3.84,8.81-4.06,17.69-7.98,27.08-10.58,4.34-1.2,8.56-2.84,12.87-4.19,2.22-.7,4.49-1.24,6.76-1.75,2.52-.57,5.29-.57,7.55-1.66,1.7-.83,3.44-.43,5.14-1.2,1.97-.9,4.47-.61,6.73-.92,1.04-.14,2.04-.5,3.06-.72,1.03-.22,2.23.46,3.13-.62.17-.2.69-.11,1.05-.13,3.77-.25,7.59-.18,11.28-.85,2.92-.53,5.78-.64,8.7-.65,3-.01,5.99,0,8.99,0ZM196.74,29.24c-.68.25-1.41.61-2.18.78-3.42.73-6.79,1.7-10.13,2.71-4.64,1.4-9.18,3.16-13.77,4.71-6.6,2.22-12.8,5.3-19.18,7.98-2.13.89-4,2.39-6.11,3.33-5.44,2.4-10.55,5.48-15.48,8.68-8.07,5.23-16.11,10.57-23.37,17-2.1,1.86-4,3.97-6.26,5.6-2.41,1.74-4.46,3.81-6.54,5.88-3.36,3.35-6.71,6.71-10.07,10.06-.53.53-1.13,1.01-1.58,1.6-3.13,4.13-6.36,8.17-9.79,12.05-1.18,1.34-2.24,2.79-3.24,4.27-2.84,4.18-5.69,8.36-8.41,12.62-3.26,5.12-6.76,10.15-9.45,15.57-2.98,5.99-6.4,11.79-8.58,18.16-1.09,3.17-2.57,6.17-3.61,9.37-1.58,4.84-3.36,9.61-4.71,14.54-.82,2.99-1.81,5.98-2.71,8.97-.9,3.02-1.48,6.14-2.12,9.21-.31,1.47-1.07,3.01-.84,4.52.28,1.8-.97,3.25-.79,4.94.17,1.61-.51,3.05-.69,4.57-.31,2.51-.38,5.04-.68,7.56-.54,4.59.09,9.29-.84,13.92-.31,1.56-.15,3.24-.02,4.86.13,1.65.55,3.28.71,4.94.33,3.51-.54,7.07.69,10.58.47,1.33-.02,2.98.1,4.47.13,1.53.52,3.04.71,4.56.29,2.39-.05,5.06.93,7.1.9,1.87-.37,3.98,1.24,5.49,0,2.64,1.29,5.05,1.51,7.59.33,3.82,1.75,7.29,2.81,10.86,1.34,4.52,3.02,8.96,4.63,13.41,2.06,5.66,4.58,11.1,6.94,16.61,1.64,3.83,3.68,7.49,5.92,11.04,2.18,3.45,4.1,7.05,6.28,10.5,2.32,3.68,4.75,7.3,7.26,10.85,1.79,2.54,3.74,4.98,5.72,7.37,1.87,2.26,3.99,4.3,5.78,6.61,3.06,3.95,6.45,7.61,9.84,11.26,2,2.14,4.19,4.07,6.52,5.9,2.99,2.34,5.44,5.28,8.38,7.73,3.26,2.71,6.55,5.38,9.8,8.1,1.56,1.3,3.1,2.68,4.82,3.74,7.28,4.48,14,9.81,21.59,13.85,3.37,1.79,6.7,3.76,10.05,5.62,5.45,3.03,11.24,5.38,16.94,7.91,4.03,1.78,8.18,3.23,12.27,4.74,5.2,1.92,10.55,3.59,16.03,4.76,3.05.66,6.11,1.48,9.13,2.35,3.06.88,6.22,1.26,9.3,1.85,3.6.69,7.31,1.38,10.96,1.56,5.26.26,10.47,1.19,15.79.92,5.6-.28,11.24.03,16.85-.1,3.27-.07,6.56.5,9.83-.63,1.45-.5,3.22.01,4.84-.11,1.53-.12,3.04-.68,4.56-.67,2.56.02,4.96-1.36,7.56-.8,1.47-1.26,3.58-.08,4.82-.95,1.41-.99,2.84-.07,4.18-.88,1.15-.7,2.68-1.17,3.99-1.08,1.56.11,2.79-.65,4.18-.9,3.45-.62,6.96-1.21,10.24-2.39,6.4-2.31,12.86-4.48,19.21-6.95,2.24-.87,4.22-2.6,6.8-2.58,3.56-2.2,7.44-3.72,11.31-5.24.78-1.64,2.7-1.33,3.94-2.3,1.25-.98,2.93-1.37,4.3-2.22,2.27-1.42,4.74-2.55,6.94-4.01,8.09-5.36,16.02-10.98,23.75-16.87,4.08-3.1,7.72-6.72,11.47-10.17,5.64-5.18,10.81-10.89,15.9-16.61,1.52-1.71,3.25-3.32,4.49-5.23,1.75-2.7,3.84-5.12,5.66-7.76,2.27-3.31,4.72-6.51,6.84-9.91,1.78-2.86,3.66-5.65,5.14-8.72,1.61-3.35,3.87-6.38,5.61-9.67,1.62-3.06,3.04-6.23,4.36-9.43,2.2-5.33,4.72-10.52,6.43-16.07,2.08-6.78,5.02-13.31,5.73-20.47,1.66-3.24,1.51-6.88,2.36-10.28.42-1.68.14-3.5.78-4.89.58-1.24.42-2.34.61-3.5.22-1.28.57-2.53.72-3.81.26-2.27-.55-4.65.77-6.8-.25-4.05.56-8.04.65-12.05.11-4.63.6-9.29-.56-13.94-.53-2.12,0-4.48-.12-6.72-.13-2.28-.5-4.54-.71-6.81-.28-3.01-.1-6.14-.86-9.02-.87-3.3-.69-6.81-2.14-9.96.45-3.43-1.88-6.44-1.5-9.87-1.23-2.02-1.35-4.41-2.18-6.59-.86-2.27-1.01-4.82-1.79-7.13-3.24-9.63-6.56-19.25-11.13-28.34-4.7-9.36-9.45-18.69-15.56-27.29-3.43-4.82-6.74-9.74-10.38-14.4-3.64-4.67-7.35-9.34-11.45-13.58-5.84-6.05-11.54-12.26-18.08-17.64-3.65-3-7.11-6.25-10.79-9.24-2.97-2.41-6.02-4.68-9.16-6.85-4.16-2.86-8.44-5.53-12.63-8.32-4.79-3.19-9.98-5.57-14.87-8.53-3.63-2.2-7.76-3.54-11.61-5.39-4.39-2.11-9.01-3.57-13.56-5.25-5.02-1.86-10.17-3.22-15.31-4.67-3.22-.91-6.69-1.09-9.69-2.78-3.63.18-7-1.36-10.59-1.68-1.87-.17-3.91-.15-5.65-.73-1.32-.44-2.57-.74-3.85-.57-1.54.2-2.77-.72-4.19-.79-3.28-.16-6.52-.09-9.82-.61-3.9-.62-7.97-.26-11.96-.11-3.89.15-7.86-.74-11.68.72-4.07-.56-8.02.85-12.05.73-1.73-.05-3.33.15-4.91,1.24.29,1.46.71,2.95.85,4.47.27,2.83.97,5.52,2.18,8.09,1.85,3.94,6.31,9.82,10.08,12.17,1.83,1.14,2.86,3.2,4.72,3.92,2.33.91,3.01,3.03,4.37,4.62,3.65,4.25,5.58,9.23,5.64,14.88.01,1.12.1,2.26-.02,3.37-.13,1.16-.49,2.29-.72,3.44-.67,3.31-1.16,6.66-2.62,9.78-1.51,3.23-2.9,6.51-4.34,9.77-.53-2.27-.65-4.48-.49-6.67.15-2.1-.53-4.05-1.07-5.95-1.72-6.07-5.51-10.88-10.3-14.8-3.86-3.16-8.04-5.96-12.07-8.91-2.95-2.15-5.05-4.89-7.15-7.6-1.71-2.21-2.6-5.14-3.5-7.87-.87-2.66-1.81-5.47-1.79-8.2.03-3.94-1.29-7.73-.93-11.66,0-.08-.16-.18-.36-.37Z"/>
  <path class="cls-1" d="M92.53,108.75c5.18,3.84,9.34,8.57,13.85,12.94,7.48,7.25,14.76,14.73,22.55,21.63,4.92,4.36,9.2,9.37,14.24,13.53,4.6,3.79,8.34,8.46,12.94,12.18,3.96,3.21,7.15,7.18,11.07,10.34,3.28,2.65,5.95,5.92,9.23,8.47,3.44,2.67,6.11,6.1,9.48,8.76,3.31,2.61,5.96,5.91,9.23,8.46,3.72,2.91,6.62,6.65,10.28,9.54,3.8,3,6.82,6.8,10.55,9.8,3.48,2.79,6.31,6.25,9.75,9.01,3.09,2.47,5.57,5.61,8.7,7.93,3.41,2.53,5.93,6.05,9.86,8,2.17-2.69,4.55-5.56,6.83-8.52,1.95-2.54,3.79-5.17,5.67-7.76,2.37-3.26,4.71-6.55,7.09-9.8,1.13-1.54,2.34-3.03,3.51-4.54,4.24-5.49,8.75-10.79,12.64-16.51,4.06-5.97,8.64-11.54,12.6-17.59,3.59-5.47,8.02-10.39,11.8-15.75,4.37-6.2,8.96-12.23,13.29-18.45,3.04-4.37,6.19-8.67,9.25-13.03,1.91-2.72,3.69-5.51,5.72-8.16,1.46-1.91,3.04-3.85,4.17-6.09,1.05-2.09,2.84-3.8,4.14-5.79,3.89-5.93,8.22-11.56,12.32-17.34,3.91-5.51,7.68-11.13,11.8-16.5.42-.55.72-1.18,1.18-1.93,1.44,1.04,2.97,1.96,4.28,3.13,3.4,3.03,6.75,6.1,10.03,9.26,3.59,3.47,7.13,7,10.59,10.59,3.33,3.45,6.68,6.91,9.79,10.56,6.09,7.15,11.36,14.9,16.5,22.75,4.84,7.4,9,15.2,12.66,23.23,2,4.39,3.82,8.9,5.44,13.48,1.58,4.46,3.22,8.91,4.61,13.44.99,3.22,1.87,6.47,2.75,9.72.55,2.03,1.1,4.06,1.48,6.12.37,2,.27,4.11.83,6.04.87,3.01.71,6.16,1.52,9.11.73,2.67.2,5.38.75,7.94,1.22,5.64.48,11.3.63,16.94.15,5.61.09,11.24,0,16.86-.03,1.77-.45,3.54-.72,5.31-.25,1.64.6,3.43-.71,4.96-.25.29-.04.97-.03,1.47.03,2.53-.6,4.92-1.35,7.31-.46,1.46.27,3.17-.9,4.5-.8,8.1-4.04,15.56-6,23.36-2.6,4.28-2.98,9.53-5.98,13.63-1.17,4.79-3.89,8.91-6.12,13.18-2.42,4.63-4.95,9.25-7.98,13.58-2.3,3.29-4.49,6.65-6.87,9.88-1.97,2.68-3.42,5.76-5.92,8.01-.95.86-.69,2.77-2.82,2.78-.08-.48-.18-1-.26-1.53-.25-1.64-.51-3.29-.75-4.93-.22-1.53,0-3.01-.61-4.61-.67-1.81-.32-3.98-.8-6.03-.65-2.8-.06-5.96-1-8.6-.96-2.69-.23-5.41-1.2-8.1-.95-2.64-.5-5.76-.95-8.62-.42-2.68-.32-5.46-1.34-8.05-.09-.22-.09-.47-.11-.7-.25-3.02-.46-6.04-.77-9.05-.16-1.53-.47-3.04-.74-4.56-.27-1.52.71-3.23-.73-4.58-.12-.12,0-.48-.02-.73-.25-2.89-.49-5.79-.75-8.68-.13-1.42-.99-2.66-.79-4.19.16-1.28.35-2.68-.69-3.82-.12-.14,0-.49-.02-.73-.25-3.14-.21-6.34-.85-9.41-.42-2.04-.26-4.13-.76-6.05-.54-2.05-.19-4.16-.74-6.06-.62-2.18-.55-4.3-.66-6.46-.07-1.42-.97-2.66-.78-4.19.17-1.28.33-2.69-.7-3.81-.06-.07,0-.24,0-.37-.25-3.14-.46-6.29-.76-9.43-.16-1.65-.46-3.29-.74-4.93-.25-1.52.71-3.24-.74-4.57-.06-.06,0-.24,0-.37-.25-3.14-.33-6.31-.8-9.42-.41-2.68-.29-5.47-1.35-8.04-.09-.21-.08-.47-.1-.71-.25-3.02-.46-6.04-.77-9.05-.16-1.53-.47-3.04-.74-4.56-.26-1.52.7-3.23-.73-4.58-.12-.12-.04-.48-.01-.73.34-3.68-1.28-7.23-.77-10.93.03-.18-.22-.4-.33-.6-.12,0-.3-.07-.36-.01-.94,1.03-1.89,2.04-2.77,3.11-.91,1.11-2.01,1.98-2.76,3.33-1.1,1.97-2.93,3.54-4.4,5.31-3.14,3.8-6.42,7.48-9.32,11.48-1.78,2.46-4.22,4.45-5.99,6.92-1.76,2.45-4.25,4.28-5.64,7.01-.27.53-.86.9-1.3,1.34-2.68,2.64-4.98,5.58-7.18,8.63-1.35,1.86-2.95,3.54-4.48,5.27-3.87,4.39-7.89,8.67-11.61,13.19-3.77,4.57-7.57,9.11-11.38,13.64-4.13,4.92-8.18,9.89-12.4,14.74-3.06,3.51-6.3,6.94-8.86,10.89-.6.92-1.55,1.61-2.36,2.4-2.15,2.12-4.03,4.45-5.57,7.06-.19.31-.53.53-.78.8-2.39,2.63-4.98,5.11-7.1,7.94-2.81,3.75-6.2,7.02-8.84,10.92-1.14,1.69-2.78,2.99-4,4.7-1.91,2.67-4.31,5-6.71,7.71-1.86-1.25-3.77-2.38-5.51-3.75-3.55-2.79-7.29-5.31-10.94-7.95-3.49-2.52-6.78-5.31-10.22-7.91-3.12-2.36-6.33-4.6-9.5-6.91-3.26-2.38-6.51-4.77-9.78-7.14-3.26-2.37-6.48-4.81-9.82-7.06-1.5-1.01-2.67-2.35-4.18-3.38-3.87-2.61-7.32-5.83-11.08-8.61-4.12-3.05-8.05-6.35-12.21-9.35-3.33-2.4-6.28-5.32-9.49-7.88-4.3-3.42-8.73-6.68-13.04-10.1-3.12-2.48-6.02-5.26-9.22-7.62-3.17-2.34-5.98-5.13-9.34-7.24-1.73-1.08-3.17-2.61-4.75-3.93-1.57-1.32-2.96-3.09-4.77-3.85-1.88-.79-2.68-2.65-4.57-3.43-1.56-.64-2.76-2.26-4.19-3.39-4.05-3.21-8-6.57-12.08-9.76-1.46-1.14-2.66-2.61-4.07-4.02-.35,1.14-.57,2.14.14,3.16.19.27.29.65.32.99.27,2.89.59,5.78.73,8.68.07,1.45,1.11,2.61.85,4.19-.2,1.24-.48,2.71.68,3.81.06.06,0,.24,0,.37.25,3.14.46,6.29.76,9.43.16,1.65.46,3.29.74,4.93.26,1.52-.7,3.21.67,4.6.19.19.04.71.07,1.08.15,1.78-.13,3.53.63,5.36.65,1.56.29,3.48.73,5.29.73,3.03.59,6.26.9,9.4.15,1.53.47,3.04.74,4.56.25,1.4-.61,2.97.65,4.23.13.13.08.46.1.7.25,2.89.55,5.78.73,8.68.1,1.55,1.09,2.88.82,4.57-.24,1.51.23,3.03.58,4.58.65,2.93.58,6.01.88,9.03.14,1.41.47,2.79.73,4.19.26,1.4-.61,2.96.64,4.24.19.2.08.7.1,1.07.25,3.14.19,6.36.86,9.4.45,2.05.21,4.14.74,6.05.57,2.05.21,4.16.75,6.06.59,2.05.21,4.16.75,6.06.56,1.93.23,3.89.73,5.69.6,2.17.16,4.43.78,6.42.65,2.08.25,4.12.71,6.08.27,1.15.65,2.24.7,3.45.05,1.17-.32,2.32.41,3.58.55.94.16,2.39.32,3.6.17,1.28.55,2.53.71,3.82.14,1.18-.25,2.43.74,3.46.19.19.02.72.03,1.1.05,1.8,0,3.54.66,5.34.55,1.5-.35,3.39.82,4.91.12.16,0,.49.02.74.13,1.79-.1,3.53.63,5.35.63,1.57-.14,3.55.8,5.29.36.67.06,1.7.06,2.99-2.53-1.91-4.91-3.54-7.11-5.38-6.21-5.21-12.36-10.49-17.94-16.4-4.5-4.77-8.6-9.86-12.8-14.89-5.12-6.14-9.43-12.81-13.95-19.36-1-1.45-2.08-2.87-2.88-4.43-3.07-5.97-6.15-11.93-9.01-17.99-3.3-7.01-5.92-14.29-8.24-21.68-1.3-4.13-2.83-8.21-3-12.62-1.17-1.09-.16-2.9-.85-3.72-1.16-1.38-.01-2.97-.93-4.15-.98-1.25-.19-2.64-.47-3.93-.23-1.03-.51-2.04-.74-3.06-.23-1.03.48-2.23-.6-3.14-.2-.17-.16-.69-.14-1.04.3-5.42-1.23-10.74-.8-16.17.22-2.73.08-5.49.02-8.24-.03-1.05.46-2.22-.65-3.12-.25-.2-.28-1.16-.04-1.4,1.38-1.39.58-3.07.69-4.6.32-4.76.28-9.56.86-14.28.4-3.29.75-6.66,1.52-9.85,1.36-5.66,1.82-11.56,4.26-16.94-.14-2.67,1.92-4.87,1.62-7.57,1.71-2.57,2.01-5.68,3.23-8.4,1.75-3.9,3.03-7.99,4.93-11.82,1.84-3.72,3.28-7.68,5.39-11.24,3.33-5.61,6.24-11.49,9.99-16.85,4.21-6.01,8.37-12.05,12.75-17.93,2.02-2.72,4.49-5.1,6.68-7.57Z"/>
  <path class="cls-1" d="M222.04,342.16c-1.26-.91-1.51-1.61-1.98-1.83-5.07-2.37-9.28-6.01-13.73-9.29-3.82-2.82-7.71-5.56-11.44-8.49-2.49-1.96-4.78-4.18-7.12-6.32-3.62-3.33-7.19-6.71-10.82-10.03-.62-.56-.9-1.14-.78-1.93,3.49,2.11,6.97,4.23,10.46,6.34,1.89,1.14,3.73,2.41,5.71,3.37,6.07,2.97,11.75,6.59,17.51,10.1,5.17,3.15,10.39,6.24,15.54,9.42,1.89,1.17,4.02,1.94,5.66,3.51.21.2.65.17,1.59.38-.7-1.05-1.3-1.53-1.83-2.07-.61-.62-1.13-1.46-1.87-1.79-3.26-1.48-5.67-4.18-8.77-5.91-4.47-2.5-8.61-5.56-13.18-7.92-3.86-1.99-7.25-4.76-10.89-7.12-.89-.58-1.74-1.23-2.6-1.85-.76-.55-1.52-1.1-2.78-2.01,1.23.2,2.03.18,2.69.47,1.7.75,3.38,1.51,5.27,1.78-.01,0-.06.06-.11.11.17.2.35.41.52.61l.24-.24c-.2-.17-.41-.35-.65-.48-.89-1.27-2.07-2.14-3.35-3.08-2.8-2.05-5.81-3.87-8.21-6.48-1.04-1.13-2.43-1.93-3.62-2.94-1.21-1.03-2.32-2.18-3.55-3.18-2.84-2.34-6.45-3.08-9.74-4.45-1.91-.8-3.83-1.62-5.8-2.23-1.89-.58-3.77-1.07-5.55-1.97-1.02-.52-2.18-.75-3.64-1.23.78,6.77,4.15,12.64,5.41,19.35-3.04,1.51-6.01,2.99-8.9,4.42,1.38.98,2.81,1.49,4.83.45,1.33-.68,3.01.13,4.21,1.34,3.03,3.07,6.94,4.98,10.27,7.62,3.83,3.02,8.13,5.32,11.88,8.45,2.55,2.13,5.69,3.52,8.23,5.71-4.01-.04-7.87,1.53-11.96,1.13,3.32,1.83,6.5,4,10,5.39,3.64,1.45,7.34,2.84,10.89,4.44,3.48,1.57,7.29,2.32,10.92,4.62-1.18.06-2.02.23-2.82.12-3.7-.51-7.25.97-10.93.77-1.79,1.53-4.14.37-6.18,1.38-1.72.85-4.09.29-5.97.94-4.96,1.7-10.12,2.59-15.13,4.11-4.55,1.38-9.04,2.97-13.67,4.1-2.47.6-4.94,1.32-7.3,2.26-2.62,1.05-5.38,1.52-8.09,2.15-1.48.35-2.87,1.14-4.55.86-1.57-.26-3.22-.06-4.87-.06-.92-3.49-1.91-6.9-1.82-10.54.03-1.26-.53-2.53-.68-3.81-.14-1.18.27-2.45-.75-3.45-.12-.12,0-.48-.02-.73-.25-3.14-.2-6.35-.85-9.4-.43-2.04-.04-4.29-.8-6.01-.94-2.13.05-4.23-.68-6.09-.79-2.03-.05-4.26-.83-6.01-.95-2.11-.19-4.12-.61-6.12-.24-1.14-.62-2.25-.94-3.39,3.1-3.37,6.31-6.44,9-9.91,2.2-2.85,5-5.09,7.17-7.88,2.43-3.13,5.31-5.79,7.98-8.67,1.65-1.78,3.08-3.75,4.78-5.85,1.32.34,2.63.47,3.75,1,4.28,2.05,8.75,3.59,13.17,5.29,3.46,1.33,6.97,2.45,10.44,3.72,1.29.47,2.42,1.43,3.55,2.27,2.3,1.72,4.49,3.59,6.82,5.27,4.12,2.97,8.29,5.88,12.48,8.75,7.77,5.32,15.5,10.72,23.43,15.81,2.14,1.38,3.53,3.15,4.75,4.94,11.21,3.58,21.95,7.8,32.93,12.1,1.29-1.29,2.93-2.79,4.4-4.44,2.5-2.79,5.1-5.49,7.17-8.63.13-.2.35-.35.52-.53,3.18-3.43,6.39-6.83,9.52-10.29,2.2-2.43,4.29-4.94,6.89-7.96v7.63c2.42-2.62,4.31-5.16,6.68-7.1,2.33-1.9,4.72-3.9,7.44-4.6,2.18-3.58,4.11-6.91,6.19-10.14,1.16-1.8,2.46-3.53,3.89-5.12,3.2-3.58,6.58-6.99,9.75-10.59,2.06-2.33,4.07-4.75,5.78-7.34,3.68-5.57,6.9-11.45,10.9-16.83.61-.82.92-1.86,1.45-2.97,1.45.07,2.45,1.02,3.52,1.96,3.46,3.04,6.8,6.29,10.54,8.94,3.53,2.5,6.59,5.55,10.1,8.06,2.27,1.62,4.22,3.68,6.35,5.5.33.28.84.35,1.14.47.58,3.44,1.15,6.79,1.79,10.56-3.41-1.41-4.92-4.43-7.59-6.09-2.76-1.71-4.76-4.64-7.5-6.41-2.67-1.73-4.47-4.35-7.22-6-2.66-1.59-4.95-3.79-7.63-5.9-.01,4.06,1.76,7.61,2.29,11.4.51,3.66,1.24,7.35,1.75,11.18-1.96-2.51-3.93-5.02-5.89-7.53.13,6.2-2.6,11.44-4.38,17.32,2.78-1.19,4.69-3.25,7.05-4.74,2.59,4.38,3.42,9.06,4.31,13.73-1.29-1.06-2.58-2.12-4.2-3.46-.11.84-.34,1.33-.19,1.65.88,1.97.99,4.1,1.38,6.17.3,1.55-.81,2.7-1.53,3.85-2.65,4.25-4.68,8.79-6.84,13.28-.9,1.88-1.88,3.72-2.87,5.56-.64,1.19-1.37,2.33-2.41,4.09,1.66-.98,2.88-1.57,3.96-2.35,4.27-3.05,8.62-5.98,12.61-9.45,3.29-2.86,6.66-5.63,9.97-8.48,2.32-2,4.59-4.03,6.8-6.15.21-.2.65-.15,1.01-.23.84,1.32-.22,2.88.94,4.24.71.83-.12,2.46.75,3.79.71,1.09.28,2.9.93,4.08.72,1.31.59,2.55.68,4.1-1.94,1.65-3.98,3.39-6.03,5.12,5.14-1.15,9.63-3.44,14.2-6.23.22.56.64,1.27.78,2.03.36,1.88-.34,3.78.62,5.75.8,1.64-.44,3.88.9,5.61-.61,2.72,1.14,5.22.68,8.05-1,.24-2.01.52-3.03-.23-.26-.2-.65-.27-.99-.3-3.64-.27-7.28-.61-10.93-.73-3.74-.13-7.49-.04-11.24-.02-1.55,0-2.88,1.07-4.57.8-1.51-.24-3.16-.32-4.55.69-5.67-.17-10.93,1.95-16.34,3.12-3.46.75-6.91,1.94-10.31,3.09-4.65,1.56-6.5,1.35-11.91.65-3.43-.44-6.75-1.44-10.21-1.76-2-.19-4.28,0-6.01-.76-2.13-.94-4.11-.38-6.13-.56-2.11-.19-4.24-.04-6.36-.04s-4.25-.03-6.37,0c-1.67.03-3.3-.1-4.97.66-1.46.66-3.21,0-4.96.67-1.53.59-3.49.66-5.25.83-2.63.25-5.02,1.19-7.51,1.83-3.43.89-6.7,2.29-10.41,2.09-1.72-.09-3.28-.63-4.93-.85-3.91-.51-7.76-1.53-11.74-1.49-1.51-1.1-3.26-.67-4.75-.75-2.91-1.55-5.71-2.96-8.42-4.54-1.43-.83-2.64-2.04-4.04-2.94-1.36-.87-2.88-1.51-4.25-2.36-.47-.29-.73-.93-1.08-1.41,1.99.61,4.05,1.05,5.94,1.88,3.3,1.44,6.87,1.98,10.18,3.35.32.13.74.02,2.02.45.4-.14.25-.42.14-.41-.36.05-.7.21-1.05.32.45.13.9.26.91.08ZM307.32,337.7c4.97-3.24,9.37-7.01,13.38-11.24.69-.72,1.39-1.44,2.12-2.11,4.16-3.86,6.83-8.8,9.75-13.55.76-1.23,1.2-2.65,2.01-4.48-4.02,1.91-7,4.24-10.27,7.43.36-4.69.34-8.73,1.07-12.63.73-3.89.76-7.89,1.95-11.76-8.09,13.38-16.63,26.4-25.56,40.18,4.19-2.2,7.77-3.61,11.94-5.37-3.17,4.56-3.74,9.48-6.38,13.53Z"/>
  <path class="cls-1" d="M251.11,189.08c-13.9,5-28.3,7.35-42.92,8.97-1.29-1.29-2.39-2.67-3.75-3.71-3.29-2.49-5.89-5.77-9.41-8-.72-.46-1.23-1.23-1.87-1.83-3.07-2.83-6.03-5.8-9.25-8.44-4.64-3.8-9.07-7.82-13.37-11.97-3.31-3.2-5.2-7.06-4.87-11.84.18-2.63.13-5.16,1.18-7.76,1.13-2.82,2.81-5.18,4.66-7.42,2.46-2.98,5.87-4.79,9.21-6.64,4.99-2.75,10.3-4.69,15.72-6.35,2.99-.92,5.99-1.99,9.04-2.52,2.68-.46,5.19-1.5,7.89-1.93,2.43-.39,5.05-.66,7.45-1.82,1.38-.67,3.23-.37,4.91-.73,3.17-.69,6.51-.76,9.78-.83,2.43-.05,4.68-1.15,7.19-.85,2.34.27,4.82.46,7.09-.02,5.11-1.09,10.26-.4,15.24-.71.39-1.39.68-2.65,1.08-3.86.97-2.88,1.43-5.91,2.08-8.85.67-2.98,1.94-5.74,2.57-8.71.75-3.51,2.63-6.64,3.89-9.99.57-1.52.77-3.18,1.19-4.75.84-3.09,2.66-5.68,4.43-8.27.23-.33.8-.43,1.32-.68,3.75-7.61,8.01-15.05,14.78-20.67,2.31-1.92,4.87-3.33,8.07-3.12,1.74.12,3.49.02,5.24.02,6.88,3.89,7.42,4.8,7.32,12.22-.79,1.34-1.47,2.57-2.23,3.75-.33.51-.74,1.02-1.23,1.35-3.91,2.61-6.97,6.05-9.74,9.78-1.13,1.52-2.14,3.11-3.26,4.64-2.02,2.75-2.72,5.81-2.2,8.82-1.04,1.68-1.75,3.03-3.45,3.85-1.89.91-1.99,3.38-2.52,5.23-1.27,4.48-2.46,8.98-3.59,13.5-.82,3.3-1.28,6.68-1.9,9.96,2.04,1.13,3.73,2.19,5.51,3.02,3.85,1.8,6.69,4.75,8.81,8.24,1.23,2.02,2,4.53,2.22,6.89.22,2.35.47,4.78-.44,7.25-.59,1.6-.6,3.9.13,5.4.95,1.96-.17,2.99-.92,4.14-1.35,2.06-3,3.92-4.69,6.07-1.97-2.78-3.52-5.91-6.7-7.39,2.05-3.24,4.06-6.4,5.72-9.01.89-4.97.16-9.07-2.64-12.49-2.04-2.5-4.89-4.02-8.06-5.4-.45,2.46-.83,4.55-1.23,6.72.91.59,1.68,1.09,2.43,1.57v1.5c-1.46-.22-1.19,1.71-2.57,1.92-1.04.16-1.91,1.33-2.89,2-2.4,1.65-5.03,2.86-7.75,3.91-2.26.88-4.47,1.88-6.84,2.48-3.26.82-6.49,1.81-9.72,2.75-2.91.85-5.94,1.12-8.86,2.11-1.7.57-3.75.5-5.65.83-3.88.69-7.82,1.13-11.71,1.72-2.55.39-5.11.12-7.57.63-6.87,1.44-13.8.73-20.67.55-4.56-.12-9.27-.5-13.67-2.13-1.62-.6-3.14-1.48-4.72-2.24-.04-2.45.36-4.08,2.67-5.43,5.02-2.94,10.11-5.23,16.03-6.58,1.92-.44,3.96-.91,5.65-1.69,2.31-1.06,4.77-1.42,7.07-1.84,3.14-.57,6.26-1.34,9.45-1.77,3.29-.45,6.59-.98,9.85-1.56,2.31-.41,4.64-.13,6.81-.67,3.15-.79,6.29-.64,9.45-.66,3.25-.03,6.49,0,10.06,0,1.08-2.24,1.82-4.65,1.56-7.49-6.36,0-12.6-.29-18.79.14-2.5.17-5.1.21-7.54.72-2.04.43-4.04.64-6.08.63-1.94-.01-3.68,1.32-5.68.76-1.79,1.52-4.14.38-6.18,1.38-1.73.84-4.03.42-5.99.92-3.06.77-5.99,2.04-9.19,2.2-.78,1.4-2.29.34-3.34,1-.87.54-1.89,1.17-2.85,1.17-1.27,0-2.32.43-3.44.83-5.59,1.96-11.17,4.04-15.92,7.63-2.57,1.94-4.59,4.55-4.88,8.06-.04.53-.5,1.03-.8,1.62.77,1.66,1.49,3.37,2.35,5,.44.83.98,1.76,1.74,2.25,3.21,2.09,6.58,3.85,10.22,5.16,1.37.49,2.72.05,4.17.81,1.79.94,4.19.68,6.33.95,1.77.23,3.54.48,5.31.75,1.64.25,3.4-.59,4.98.69.45.37,1.45.06,2.2.06,7.87,0,15.73.04,23.6-.03,1.65-.02,3.28-.57,4.94-.69,1.74-.13,3.61.36,5.21-.13,1.8-.56,3.55-.52,5.34-.68,1.65-.14,3.36-.45,4.9-.85,3.3-.85,6.78-.65,10-2.04,1.55-.67,3.46-.51,5.35-.4-2.39,1.11-4.71,2.4-7.18,3.28-4.57,1.64-9.29,2.89-13.84,4.59-2.53.94-5.18,1.31-7.72,2.14-2.21.73-4.55,1.13-6.86,1.52-2.32.39-4.61.81-6.89,1.46-1.69.48-3.49.12-5.33.68-2.61.79-5.49.68-8.27.87-5.13.35-10.26.64-15.56.97-.04.12-.15.45-.3.9.35.15.65.38.95.38,4.78,0,9.49,1.3,14.3.77,5.33,1.5,10.84,1.05,16.16.58,5.79-.52,11.54-.37,17.31-.61,1.22-.05,2.43-.51,3.71-.52-3.05,1.58-6.29,2.6-9.55,3.55-2.57.75-5.24,1.12-7.77,2.02-.88.31-1.95.09-2.9.24-.91.15-1.79.66-2.69.7-4.45.19-8.72,1.99-13.24,1.53-2.55,1.22-5.28.56-7.93.78-1.03.08-2.03.56-3.07.7-.95.12-1.93.03-2.9.27,1.89.74,3.8,1.03,5.76,1.36,5.15.87,10.39-.03,15.42.79,6.06,1,12.06.2,18.07.6,4.08-1.21,8.28-.62,12.43-.55ZM273.52,135.39c.28-.92.66-1.79.79-2.7.32-2.26.14-4.65.85-6.77,1.51-4.49,1.73-9.21,2.76-13.78.66-2.96,1.56-5.92,1.84-9.05.21-2.28,1.24-4.66,2.04-6.95.83-2.4,1.51-4.86,2.29-7.42-.69-.13-1.37-.26-1.86-.35-1.46-.91-2.07-2.64-4.31-3.04.27.72.63.98.67,1.04-3.17,8.04-5.27,16.25-7.2,24.47-1.97,8.42-3.75,16.91-4.51,25.59h4.55c.76-.38,1.27-.63,2.08-1.03ZM287.49,81.45c4.25-8.53,8.96-15.74,17.37-20.79-4.7.52-6.43-2-7.67-5.2-6.37,6.12-10.06,13.77-13.88,21.77,1.19,1.21,2.56,2.59,4.18,4.22ZM309.91,55.51c.89-.75,1.62-1.54.95-2.81-3.4-2.34-3.95-2.32-8.76.31v1.5c1.26.34,2.48.81,3.73.96,1.35.17,2.73.04,4.08.04ZM279.71,78.7c.37,1.21.66,2.15.97,3.14,1.99,1.2,3.85,2.93,6,3.44,2.25.53,4.68,1.9,7.16.62-.05-.4-.07-.63-.12-.99-2.53-.23-4.78-1.56-7.15-2.23-2.7-.77-3.86-3.56-6.86-3.97Z"/>
  <path class="cls-1" d="M386.51,351.47c.45,2.15.99,3.96,1.07,5.92.08,1.87,1.02,3.71.42,5.95-1.39-.15-3.05.85-4.59-.54-.14-.13-.47-.1-.71-.08-3.92.27-7.72-1.08-11.68-.81-3.98.27-8.05-.39-11.96.18-4.62.67-9.27,1.35-13.85,2.59-3.03.81-6.12,1.53-9.06,2.6-2.94,1.07-5.98,1.87-8.96,2.72-4.6,1.31-9.46,2.57-14.26,1.6-3.31-.67-6.73-.79-9.99-2.03-2.06-.79-4.57-.33-6.75-.91-3.14-.85-6.33-.32-9.42-.8-1.78-.28-3.52-.58-5.32-.64-1.7-.06-3.14,1.12-4.94.82-1.58-.27-3.33-.4-4.84,0-4.96,1.33-10.28,1.19-14.94,3.67-2.1-.2-3.82,1.17-5.75,1.43-2.45.32-4.99.16-7.48.04-1.28-.06-2.54-.46-3.81-.72-1.28-.26-2.74.63-3.86-.64-.07-.07-.22-.1-.33-.1-2.04-.05-4.08-.49-6.06-.61-5.5-.34-10.98-1.45-16.53-.88-1.78.18-3.53.58-5.31.71-1.74.12-3.59-.33-5.22.11-3.02.81-6.09.94-9.13,1.44-.91.15-1.8.46-2.69.74-2.9.89-5.91,1.47-8.84,2.07-3.93.81-7.62,2.23-11.34,3.48-5.69,1.91-11.66,3.05-17.1,5.69-2.99.09-5.61,1.63-8.44,2.17-3.32.64-6.75.71-10.06,1.02-1.45-2.8-2.17-7.52-1.91-11.95,2.99-.33,6.02-.48,8.96-1.04,3.19-.61,6.34-1.52,9.46-2.46,2.77-.83,5.51-1.81,8.26-2.61,2.78-.81,5.49-1.88,8.36-2.53,3.46-.78,6.92-1.88,10.31-3.06,2.54-.88,5.18-1.37,7.77-2,1.73-.42,3.87-.02,5.21-.91,1.58-1.05,3.5.24,4.77-1.27.16-.19.7-.11,1.06-.09,3.92.16,7.73-1.32,11.67-.75,3.69-1.43,7.53-.56,11.3-.72,3.78-.16,7.49.76,11.29.88,3.26.1,6.59.87,9.84,1.47,1.66.3,3.28.58,4.95.62,2.29.06,4.41-.51,6.64-1.1,3.6-.95,7.1-2.31,10.89-2.76,3.41-.41,6.88-.85,10.22-1.52,5.55-1.11,11.06-.27,16.57-.56,1.25-.07,2.53.5,3.81.69,1.28.19,2.72-.41,3.81.76,1.97-.32,3.8.41,5.68.73,2,.34,4.05.44,6.05.78,6.64,1.15,10.07.94,15.66-.45,5.09-1.26,9.91-3.52,15.18-4.06,2.94-1.81,6.41-1.36,9.54-2.29,3.12-.93,6.35-.91,9.52-1.35,3.3-.47,6.72-.1,10.09-.1,1.5,0,3.29-.52,4.42.12,1.61.92,3.1.44,4.63.6,1.42.15,2.81,0,4.22.69.9.44,2.2.08,3.47.08Z"/>
  <path class="cls-1" d="M144.46,411.39c-2.59-1.64-5.05-3.2-7.9-5-.31-2.34-.69-5.18-1.1-8.19,2.69-.36,5.17-.59,7.61-1.04,2.52-.47,5-1.2,7.52-1.72,2.63-.55,5.07-1.66,7.77-2.11,2.47-.41,4.89-1.45,7.28-2.28,3.94-1.36,8.01-2.32,11.87-3.86,3.16-1.26,6.47-1.95,9.74-2.67,4.26-.94,8.46-2.4,12.91-2.32,1.88-1.33,4.1-.29,6.04-.8,5.12-1.32,10.29-.49,15.43-.65,1.88-.06,3.78.46,5.68.7,1.9.23,3.93-.56,5.69.75.08.06.24,0,.37,0,3.27.25,6.54.46,9.8.77,1.16.11,2.28.6,3.44.7,1.49.13,3.02.2,4.48-.02,1.35-.2,2.62-1.04,3.97-1.21,2.82-.34,5.41-1.61,8.27-1.8,1.72-.11,3.51-.53,5.09-1.22,1.59-.69,3.44.62,4.9-.92.36-.37,1.44-.06,2.19-.06,4.49,0,8.99.09,13.48-.05,1.74-.05,3.3.49,4.93.79,1.64.3,3.24-.08,4.99.61,2.15.86,4.83.3,7.1.97,3.77,1.11,7.55.47,11.32.65,1.79.08,3.54.03,5.34-.64,1.78-.67,3.82.32,5.79-.5,1.59-.67,3.46-.66,5.16-1.1,1.67-.44,3.37-.91,4.93-1.64,3.21-1.5,6.78-1.69,10.04-2.88,3.36-1.22,6.98-1.01,10.33-2.18.56-.19,1.24-.03,1.86-.03,4.87,0,9.74-.06,14.6.03,1.52.03,3.04.44,4.56.72,1.39.26,2.74-.19,4.26.58,1.39.71,3.42.15,5.38.15.5,2.47,1,4.98,1.45,7.25-2.17,2.17-4.35,4.35-6.53,6.53-.8.59-1.86.08-3.01-.2-3.18-.78-6.42-1.17-9.56-2.25-1.51-.52-3.26-.17-4.93-.74-1.89-.64-4.03-.49-6.02-.88-1.27-.25-2.44-.78-3.82-.77-1.39.01-2.78-.54-4.18-.66-1.36-.12-2.86.32-4.09-.09-3.87-1.3-7.8-.49-11.69-.65-3.99-.16-8.03-.41-11.96.1-2.53.32-5.1.22-7.56.69-6.55,1.24-13.21,1.87-19.6,4.14-3.36,1.19-6.87,2.07-10.26,3.27-3.38,1.2-6.81,2.26-10.28,3.22-3.17.88-6.33,1.67-9.62,2.17-3.54.54-7.04.67-10.57.58-2.02-.06-4.01.38-6.11-.58-1.75-.8-4.11.47-6.01-.85-.17-.12-.49,0-.74-.02-3.77-.25-7.61-.1-11.27-.86-3.8-.78-7.55-.53-11.32-.62-3.87-.09-7.74.08-11.61-.06-1.74-.06-3.3.47-4.93.78-1.63.31-3.24-.09-5,.59-1.52.59-3.49.65-5.25.84-2.85.3-5.52,1.22-8.25,1.87-4.72,1.14-9.35,2.7-13.96,4.23-3.39,1.12-6.75,2.38-10.05,3.75-2.45,1.02-4.99,1.82-7.45,2.8-2.04.82-4.07,1.72-5.97,2.73-1.71.9-3.29,1.31-4.95,1.15Z"/>
  <path class="cls-1" d="M373.15,397.48c-3.06,2.12-6.13,4.23-9.2,6.36-.88.61-1.68,1.35-2.62,1.83-1.51.77-2.84,2.06-4.89.71-1.32-.87-3.18-.26-4.88-.8-2.58-.83-5.48-.68-8.25-.89-3.14-.24-6.22-.9-9.43-.83-4.04.09-7.99.93-12.04.99-2.6.04-5.32,1.02-8,1.27-2.62.25-4.94,1.73-7.61,1.56-3.25,1.89-7.08,2.06-10.51,3.57-3.37,1.48-7.08,2.18-10.62,3.28-2.91.9-5.88,1.53-8.81,2.28-2.55.66-5.14.55-7.69,1.22-2.45.65-5.21.14-7.83.14s-5.5.09-8.24-.03c-1.65-.07-3.29-.48-4.93-.71-1.52-.22-3.2.55-4.57-.74-.13-.12-.48,0-.73-.02-4.02-.25-8.12-.07-12.03-.85-5.17-1.04-10.3-.42-15.44-.6-1.66-.06-3.33-.22-5.07.33-1.69.54-4.04-.34-5.37.53-1.59,1.03-3.56-.33-4.73,1.34-6.03.42-11.58,2.7-17.21,4.59-2.47.83-5.24,1.36-7.33,3.54h-2.67c-4.72-1.96-9.09-3.77-13.44-5.58,1.44-1.46,2.99-2.83,5.23-3.37,1.18-.28,2.28-1.12,3.4-1.69,4.47-2.26,9.19-3.79,13.88-5.38,4.07-1.38,8.21-2.55,12.44-3.5,3.31-.74,6.79-.75,9.96-2.1,3.2.52,6.26-.79,9.43-.75,2,.03,4,.13,5.99-.02,5.68-.44,11.29.53,16.91.92,2.24.16,4.62.17,6.79.71,2.3.57,4.64.19,6.81.72,5.51,1.35,11.05.48,16.56.57,2.09.03,4.36-.33,6.39-.8,1.91-.45,3.92-.52,5.8-1.29,1.92-.79,4.03-1.12,6.02-1.74,2.87-.89,5.84-1.6,8.54-2.88,2.76-1.32,5.97-1.15,8.53-2.92,4.19-.04,7.98-1.99,12.16-2.41,3.91-.39,7.87-.83,11.72-1.5,5.56-.98,11.06-.26,16.57-.54,1.5-.08,3.03.46,4.56.7,1.52.24,3-.04,4.62.6,1.78.7,3.99.13,6.02.84,1.66.57,3.56.39,5.27.87,1.67.46,3.41.91,5.05,1.28,1.82.4,3.69.72,5.5,1.22Z"/>
  <path class="cls-1" d="M344.09,415.76c-1.24.64-2.48,1.28-3.72,1.91-3.7,1.91-7.31,4.05-11.13,5.67-5.1,2.15-10.16,4.4-15.44,6.13-3.17,1.04-6.46,1.75-9.52,3.23-1.96.95-4.18,1.36-6.31,1.93-2.7.72-5.46,1.19-8.14,2.02-1.54.48-3.23.71-4.85.93-3.54.48-6.95,1.91-10.61,1.55-2.02,1.28-4.34.31-6.42.8-5.12,1.23-10.29.55-15.43.67-5.24.12-10.48.03-15.73.03-3.66,0-7.27-.69-10.91-.92-3.39-.21-6.91-.55-10.23-1.42-3.3-.86-6.85-.51-9.95-2.16-3.98.13-7.55-1.79-11.42-2.31-1.79-.24-3.5-1.16-5.26-1.78,3.65-2.21,7.78-3.17,11.9-4.15,3.98-.94,8.07-1.12,12.09-1.68,3.81-.53,7.55-.41,11.32-.55,3.41-.13,6.72,1.27,10.17.73,2.15,1.32,4.54.51,6.8.76,1.65.18,3.28.58,4.94.71,1.61.12,3.44-.44,4.82.13,2.67,1.1,5.32.48,7.97.62,2.74.14,5.58.45,8.21-.1,2.18-.46,4.32-.34,6.45-.66,4.64-.7,9.27-1.63,13.71-3.07,2.06-.67,4.22-1.21,6.28-1.97,2.01-.75,4.19-1.4,6.4-1.82,2.3-.44,4.59-1.5,6.92-2.19,2.92-.87,5.83-1.65,8.83-2.25,1.86-.38,3.86-.19,5.57-.95,1.95-.87,4,.16,5.79-.49,2.89-1.05,5.9-1.02,8.67-.53,2.65.46,5.28.42,8.22,1.2Z"/>
  <path class="cls-1" d="M222.64,114.05c-.45.88-.77,1.5-1.16,2.26-1.55-5.03-4.84-8.83-8.46-12.22-3.2-3.01-6.92-5.48-10.46-8.11-4.62-3.44-9.27-6.79-11.53-12.45-.66-1.66-1.2-3.25-1.43-5.04-.2-1.52-.93-2.97-.67-4.57.25-1.52-.43-3.04.64-4.63.79-1.17-.59-3.17.85-4.49-.32-1.98.49-3.74,1.12-5.63.41.53.98.95,1.09,1.47.54,2.43,1.64,4.52,2.94,6.67,2.91,4.78,6.95,8.24,11.37,11.44,2.9,2.11,5.77,4.3,8.46,6.67,2.61,2.3,4.43,5.23,5.73,8.46.52,1.28,1.05,2.57,1.43,3.9.63,2.23,1.45,9.91.73,11.6-.72,1.69-.52,3.31-.65,4.65Z"/>
  <path class="cls-1" d="M211.54,200.87h3.27c9.11,0,18.22-.04,27.34.02,3.92.03,7.72-1.2,11.68-.84,1.28.12,2.58-1.22,4.34-.27-12.42,4.75-24.98,7.54-38.1,8.8-2.68-2.42-5.34-4.82-8.53-7.7Z"/>
  <path class="cls-1" d="M253.49,212.29c-1.82,2.1-3.9,3.12-6.41,3.61-2.5.49-4.9,1.41-7.39,1.97-1.6.36-3.27.36-4.84.97-.86.33-1.79.47-2.8.73-2.11-1.77-4.31-3.62-6.83-5.75,4.06-.35,7.65-.75,11.25-.93,2.98-.15,5.98-.09,8.97-.01,2.31.06,4.44-1.26,6.79-.77.34.07.68.1,1.27.18Z"/>
  <path class="cls-1" d="M237.14,224.62c2.85.75,4.84-1.38,7.38-.12-.92,1.38-.8,3.6-3.3,3.35-1.16-.91-2.26-1.79-4.08-3.23Z"/>
  <path class="cls-1" d="M286.1,168.35c-1.71,2.15-3.67,2.59-5.58,3.12,1.31-1.6,3.14-2.29,5.58-3.12Z"/>
  <path class="cls-1" d="M270.33,158.91v.75h-.25v-.75h.25Z"/>
  <path class="cls-1" d="M285.49,168.58c.17-.2.35-.41.52-.61l.24.24c-.2.17-.41.35-.61.52l-.15-.15Z"/>
  <path class="cls-1" d="M251.02,188.81c.17-.2.35-.41.52-.61l.24.24c-.2.17-.41.35-.61.52l-.15-.15Z"/>
  <path class="cls-1" d="M353.07,299.69c.2.17.41.35.61.52l-.24.24c-.17-.2-.35-.41-.52-.61.05-.05.1-.1.15-.15Z"/>
  <path class="cls-1" d="M176.11,304.35c-.2-.17-.41-.35-.61-.52.08-.08.16-.16.24-.24.17.2.35.41.52.61-.05.05-.1.1-.15.15Z"/>
  <path class="cls-1" d="M191.23,332.66c.2.17.41.35.61.52l-.24.24c-.17-.2-.35-.41-.52-.61.05-.05.1-.1.15-.15Z"/>
  <path class="cls-1" d="M203.83,336.57c-.2-.17-.41-.35-.61-.52l.24-.24c.17.2.35.41.52.61-.05.05-.1.1-.15.15Z"/>
</svg>