<?xml version="1.0" encoding="UTF-8" standalone="no"?>
<!-- Created with Inkscape (http://www.inkscape.org/) -->

<svg
   xmlns:dc="http://purl.org/dc/elements/1.1/"
   xmlns:cc="http://creativecommons.org/ns#"
   xmlns:rdf="http://www.w3.org/1999/02/22-rdf-syntax-ns#"
   xmlns:svg="http://www.w3.org/2000/svg"
   xmlns="http://www.w3.org/2000/svg"
   xmlns:sodipodi="http://sodipodi.sourceforge.net/DTD/sodipodi-0.dtd"
   xmlns:inkscape="http://www.inkscape.org/namespaces/inkscape"
   width="119.99991mm"
   height="119.99991mm"
   viewBox="0 0 119.99991 119.99991"
   version="1.1"
   id="svg8"
   inkscape:version="0.92.3 (unknown)"
   sodipodi:docname="Whatsapp.svg">
  <defs
     id="defs2" />
  <sodipodi:namedview
     id="base"
     pagecolor="#ffffff"
     bordercolor="#666666"
     borderopacity="1.0"
     inkscape:pageopacity="0.0"
     inkscape:pageshadow="2"
     inkscape:zoom="0.64"
     inkscape:cx="546.97845"
     inkscape:cy="194.84013"
     inkscape:document-units="mm"
     inkscape:current-layer="layer1"
     showgrid="false"
     inkscape:snap-global="false"
     inkscape:window-width="1024"
     inkscape:window-height="573"
     inkscape:window-x="0"
     inkscape:window-y="0"
     inkscape:window-maximized="1"
     fit-margin-top="0"
     fit-margin-left="0"
     fit-margin-right="0"
     fit-margin-bottom="0" />
  <metadata
     id="metadata5">
    <rdf:RDF>
      <cc:Work
         rdf:about="">
        <dc:format>image/svg+xml</dc:format>
        <dc:type
           rdf:resource="http://purl.org/dc/dcmitype/StillImage" />
        <dc:title></dc:title>
      </cc:Work>
    </rdf:RDF>
  </metadata>
  <g
     inkscape:label="Capa 1"
     inkscape:groupmode="layer"
     id="layer1"
     transform="translate(-54.197854,-106.48625)">
    <path
       style="opacity:1;fill:#00a400;fill-opacity:1;stroke:none;stroke-width:6.19571495;stroke-linecap:square;stroke-linejoin:miter;stroke-miterlimit:4;stroke-dasharray:none;stroke-dashoffset:70.37480164;stroke-opacity:0.92941176;paint-order:stroke fill markers"
       d="m 114.19781,108.55331 a 57.932939,57.932939 0 0 0 -57.932899,57.9329 57.932939,57.932939 0 0 0 57.932899,57.93289 57.932939,57.932939 0 0 0 57.93289,-57.93289 57.932939,57.932939 0 0 0 -1.83417,-14.26331 c -0.007,0.009 -0.0127,0.0167 -0.0195,0.0249 l -47.16826,-42.93209 a 57.932939,57.932939 0 0 0 -8.91095,-0.76241 z"
       id="path4747"
       inkscape:connector-curvature="0" />
    <path
       style="opacity:1;fill:#00a400;fill-opacity:1;stroke:#ffffff;stroke-width:8;stroke-linecap:square;stroke-linejoin:miter;stroke-miterlimit:4;stroke-dasharray:none;stroke-dashoffset:0;stroke-opacity:1;paint-order:stroke fill markers"
       d="m 115.91678,139.82524 c -14.48657,-3e-5 -26.230289,12.12556 -26.230324,27.08325 0.01154,5.73881 1.589886,12.3171 2.911947,13.74017 v 0 l -2.364194,13.12809 13.627171,-1.59073 v 0 c 3.16155,1.7639 6.58917,1.79773 12.0554,1.80572 14.4866,3e-5 26.23033,-12.12555 26.23036,-27.08325 -3e-5,-14.95769 -11.74376,-27.08328 -26.23036,-27.08325 z"
       id="ellipse860"
       inkscape:connector-curvature="0"
       sodipodi:nodetypes="cccccccccc" />
    <path
       style="opacity:1;fill:#ffffff;fill-opacity:1;stroke:none;stroke-width:9.231;stroke-linecap:square;stroke-linejoin:miter;stroke-miterlimit:4;stroke-dasharray:none;stroke-dashoffset:0;stroke-opacity:1;paint-order:stroke fill markers"
       d="m 105.51713,159.01426 c -0.52837,4.50789 1.43843,9.42079 3.92977,13.03686 3.20637,4.65392 7.18521,8.80094 12.33114,9.5714 0.87788,0.13146 2.48962,-0.94514 2.48962,-0.94514 l 0.0218,0.0219 c 2.04871,-1.40816 2.56875,-4.20948 1.16175,-6.25897 -1.39168,-2.02732 -5.40466,-1.48895 -7.476,-0.11655 -1.6148,-1.63172 -3.17143,-3.32467 -4.16721,-4.72916 -0.9302,-1.31043 -1.93522,-3.17815 -2.88159,-5.09912 1.9247,-1.48647 3.72792,-5.02706 2.46531,-6.99922 -1.31002,-2.04626 -4.09349,-2.63993 -6.18151,-1.39756 l 0.71906,1.76005 c -0.44209,-1.0618 -0.71906,-1.76005 -0.71906,-1.76005 0,0 -1.56232,1.79937 -1.69316,2.91558 z"
       id="rect11258"
       inkscape:connector-curvature="0"
       sodipodi:nodetypes="acacccccccccca" />
    <path
       style="opacity:1;fill:#007400;fill-opacity:1;stroke:none;stroke-width:8.98681927;stroke-linecap:square;stroke-linejoin:miter;stroke-miterlimit:4;stroke-dasharray:none;stroke-dashoffset:70.37480164;stroke-opacity:0.92941176;paint-order:stroke fill markers"
       d="m 170.3559,152.16244 c 0,0 -20.50388,18.4904 -41.30627,-0.79315 -18.26168,-16.92835 -6.08491,-42.34187 -6.08491,-42.34187"
       id="path4749"
       inkscape:connector-curvature="0"
       sodipodi:nodetypes="csc" />
  </g>
</svg>
